<svg width="45" height="45" viewBox="0 0 45 45" fill="none" xmlns="http://www.w3.org/2000/svg">
<path opacity="0.4" d="M39.4508 13.4813L22.5008 23.2875L5.55078 13.4813C6.30078 12.0938 7.38828 10.875 8.60703 10.2L18.6195 4.65C20.757 3.45 24.2445 3.45 26.382 4.65L36.3945 10.2C37.6133 10.875 38.7008 12.0938 39.4508 13.4813Z" fill="#F10E7C"/>
<path opacity="0.6" d="M22.5012 23.2875V41.25C21.0949 41.25 19.6887 40.95 18.6199 40.35L8.60742 34.7999C6.33867 33.5437 4.48242 30.3937 4.48242 27.8062V17.1937C4.48242 15.9937 4.89492 14.6812 5.55117 13.4812L22.5012 23.2875Z" fill="#F10E7C"/>
<path d="M40.5197 17.1937V27.8062C40.5197 30.3937 38.6635 33.5437 36.3947 34.7999L26.3822 40.35C25.3135 40.95 23.9072 41.25 22.501 41.25V23.2875L39.451 13.4812C40.1072 14.6812 40.5197 15.9937 40.5197 17.1937Z" fill="#F10E7C"/>
</svg>
