<svg width="45" height="45" viewBox="0 0 45 45" fill="none" xmlns="http://www.w3.org/2000/svg">
<path opacity="0.4" d="M39.375 42.6562H5.625C4.85625 42.6562 4.21875 42.0187 4.21875 41.25C4.21875 40.4812 4.85625 39.8438 5.625 39.8438H39.375C40.1437 39.8438 40.7812 40.4812 40.7812 41.25C40.7812 42.0187 40.1437 42.6562 39.375 42.6562Z" fill="#F10E7C"/>
<path d="M10.5 15.7124H7.5C6.46875 15.7124 5.625 16.5562 5.625 17.5874V33.7499C5.625 34.7811 6.46875 35.6249 7.5 35.6249H10.5C11.5312 35.6249 12.375 34.7811 12.375 33.7499V17.5874C12.375 16.5374 11.5312 15.7124 10.5 15.7124Z" fill="#F10E7C"/>
<path d="M24 9.7312H21C19.9688 9.7312 19.125 10.575 19.125 11.6062V33.7499C19.125 34.7812 19.9688 35.6249 21 35.6249H24C25.0312 35.6249 25.875 34.7812 25.875 33.7499V11.6062C25.875 10.575 25.0312 9.7312 24 9.7312Z" fill="#F10E7C"/>
<path d="M37.5 3.75H34.5C33.4688 3.75 32.625 4.59375 32.625 5.625V33.75C32.625 34.7812 33.4688 35.625 34.5 35.625H37.5C38.5312 35.625 39.375 34.7812 39.375 33.75V5.625C39.375 4.59375 38.5312 3.75 37.5 3.75Z" fill="#F10E7C"/>
</svg>
