<svg width="49" height="49" viewBox="0 0 49 49" fill="none" xmlns="http://www.w3.org/2000/svg">
<path d="M20.6254 10.8259C14.1636 10.8259 8.92676 16.0628 8.92676 22.5246C8.92676 28.4506 13.3673 33.3506 19.0942 34.1009V37.0103H16.828C15.9858 37.0103 15.2967 37.6994 15.2967 38.5415C15.2967 39.3837 15.9858 40.0728 16.828 40.0728H19.0942V44.4062C19.0942 45.2484 19.7679 45.9375 20.6254 45.9375C21.4677 45.9375 22.1567 45.2484 22.1567 44.4062V40.0728H24.4077C25.2498 40.0728 25.9389 39.3837 25.9389 38.5415C25.9389 37.6994 25.2498 37.0103 24.4077 37.0103H22.1567V34.1009C27.8683 33.3506 32.3089 28.4506 32.3089 22.5246C32.3089 19.8449 31.4055 17.3797 29.8896 15.4197L35.6164 9.67751V10.8718C35.6164 12.1887 37.1936 12.8319 38.1124 11.9131C38.388 11.6375 38.5411 11.27 38.5411 10.8718V6.06369C38.5411 5.25218 37.8827 4.59375 37.0864 4.59375H32.263C31.8649 4.59375 31.4974 4.74684 31.2218 5.02245C30.3029 5.94126 30.9614 7.5184 32.263 7.5184H33.4573L27.7151 13.2453C25.7552 11.7293 23.2899 10.8259 20.6254 10.8259ZM23.6879 26.1997H17.5477C16.6902 26.1997 16.0165 25.5259 16.0165 24.6684C16.0165 23.8262 16.6902 23.1372 17.5477 23.1372H23.6879C24.5455 23.1372 25.2192 23.8262 25.2192 24.6684C25.2192 25.5259 24.5455 26.1997 23.6879 26.1997ZM23.6879 21.8969H17.5477C16.6902 21.8969 16.0165 21.2078 16.0165 20.3656C16.0165 19.5234 16.6902 18.8344 17.5477 18.8344H23.6879C24.5455 18.8344 25.2192 19.5234 25.2192 20.3656C25.2192 21.2078 24.5455 21.8969 23.6879 21.8969Z" fill="#F10E7C"/>
</svg>
