<svg width="45" height="45" viewBox="0 0 45 45" fill="none" xmlns="http://www.w3.org/2000/svg">
<path opacity="0.4" d="M32.8689 14.5688C32.7377 14.55 32.6064 14.55 32.4752 14.5688C29.5689 14.475 27.2627 12.0937 27.2627 9.16875C27.2627 6.1875 29.6814 3.75 32.6814 3.75C35.6627 3.75 38.1002 6.16875 38.1002 9.16875C38.0814 12.0937 35.7752 14.475 32.8689 14.5688Z" fill="#F10E7C"/>
<path opacity="0.4" d="M38.9813 27.5625C36.8813 28.9688 33.9375 29.4937 31.2188 29.1375C31.9313 27.6 32.3063 25.8938 32.325 24.0938C32.325 22.2188 31.9125 20.4375 31.125 18.8813C33.9 18.5063 36.8438 19.0313 38.9625 20.4375C41.925 22.3875 41.925 25.5938 38.9813 27.5625Z" fill="#F10E7C"/>
<path opacity="0.4" d="M12.075 14.5688C12.2062 14.55 12.3375 14.55 12.4688 14.5688C15.375 14.475 17.6812 12.0937 17.6812 9.16875C17.6812 6.1875 15.2625 3.75 12.2625 3.75C9.28125 3.75 6.84375 6.16875 6.84375 9.16875C6.8625 12.0937 9.16874 14.475 12.075 14.5688Z" fill="#F10E7C"/>
<path opacity="0.4" d="M12.2809 24.0936C12.2809 25.9124 12.6746 27.6374 13.3871 29.1936C10.7434 29.4749 7.98711 28.9124 5.96211 27.5811C2.99961 25.6124 2.99961 22.4061 5.96211 20.4374C7.96836 19.0874 10.7996 18.5436 13.4621 18.8436C12.6934 20.4186 12.2809 22.1999 12.2809 24.0936Z" fill="#F10E7C"/>
<path d="M22.725 29.7562C22.575 29.7375 22.4063 29.7375 22.2375 29.7562C18.7875 29.6437 16.0312 26.8125 16.0312 23.325C16.0312 19.7625 18.9 16.875 22.4813 16.875C26.0438 16.875 28.9313 19.7625 28.9313 23.325C28.9313 26.8125 26.1937 29.6437 22.725 29.7562Z" fill="#F10E7C"/>
<path d="M16.6312 33.6375C13.8 35.5312 13.8 38.6437 16.6312 40.5187C19.8562 42.6749 25.1438 42.6749 28.3688 40.5187C31.2 38.6249 31.2 35.5125 28.3688 33.6375C25.1625 31.4812 19.875 31.4812 16.6312 33.6375Z" fill="#F10E7C"/>
</svg>
