<svg width="45" height="45" viewBox="0 0 45 45" fill="none" xmlns="http://www.w3.org/2000/svg">
<g clip-path="url(#clip0_2458_120667)">
<path d="M7.03121 10.5143C8.82718 10.5143 10.2831 9.05839 10.2831 7.26241C10.2831 5.46643 8.82718 4.0105 7.03121 4.0105C5.23523 4.0105 3.7793 5.46643 3.7793 7.26241C3.7793 9.05839 5.23523 10.5143 7.03121 10.5143Z" fill="#F10E7C"/>
<path d="M37.9687 18.9294C39.7647 18.9294 41.2206 17.4734 41.2206 15.6774C41.2206 13.8815 39.7647 12.4255 37.9687 12.4255C36.1727 12.4255 34.7168 13.8815 34.7168 15.6774C34.7168 17.4734 36.1727 18.9294 37.9687 18.9294Z" fill="#F10E7C"/>
<path d="M44.0197 36.2878L1.65702 25.038C0.953374 24.8509 0.231362 25.2701 0.0445092 25.9737C-0.142432 26.6775 0.276625 27.3994 0.980356 27.5862L20.3203 32.7222C18.7473 33.5205 17.6662 35.1532 17.6662 37.0346V39.6713C17.6662 40.3994 18.2564 40.9896 18.9845 40.9896H26.0157C26.7437 40.9896 27.334 40.3994 27.334 39.6713V37.0346C27.334 36.0512 27.0381 35.1359 26.5316 34.3717L43.3431 38.8361C44.0464 39.023 44.7686 38.6042 44.9556 37.9003C45.1425 37.1966 44.7234 36.4747 44.0197 36.2878Z" fill="#F10E7C"/>
<path d="M33.5742 26.7514H34.3608L34.7384 31.0948L41.0532 32.7717L41.5765 26.7514H42.3631C43.1397 26.7514 43.7694 26.1218 43.7694 25.3451V24.642C43.7694 22.8703 42.9698 21.2828 41.714 20.218C39.5422 22.0125 36.4112 22.016 34.2355 20.2277C32.9683 21.3144 32.168 22.9388 32.168 24.7301V25.3451C32.168 26.1218 32.7975 26.7514 33.5742 26.7514Z" fill="#F10E7C"/>
<path d="M2.6367 18.3366H3.42331L3.81864 22.884L10.0988 24.5518L10.639 18.3366H11.4256C12.2022 18.3366 12.8319 17.707 12.8319 16.9303V16.2272C12.8319 14.4555 12.0323 12.8681 10.7765 11.8032C8.60457 13.5977 5.47368 13.6012 3.29798 11.8129C2.03079 12.8996 1.23047 14.524 1.23047 16.3152V16.9303C1.23047 17.707 1.86002 18.3366 2.6367 18.3366Z" fill="#F10E7C"/>
</g>
<defs>
<clipPath id="clip0_2458_120667">
<rect width="45" height="45" fill="white"/>
</clipPath>
</defs>
</svg>
